PathFileType	4	(X/Y/Z)	/Users/itak/Documents/Research/Walk-IL/dataset/trc/00573_00009.trc
DataRate	CameraRate	NumFrames	NumMarkers	Units	OrigDataRate	OrigDataStartFrame	OrigNumFrames
100.000000	100.000000	4	53	mm	100.000000	284	569
Frame#	Time	RPSI			LPSI			L3			STRN			T10			C7			CLAV			RBAK			LBAK			LSHO			LUPA			LAEL			LAOL			LWTS			LWPS			LFRA			LIFD			LHPS			LHTS			RSHO			RUPA			RAEL			RAOL			RWTS			RWPS			RFRA			RIFD			RHTS			RHPS			RBHD			LFHD			RFHD			LBHD			LHIP			RHIP			RASI			LASI			LKNE			LTHI			LANK			LTIP			LTOE			LMT1			LMT5			LHEE			RKNE			RTHI			RANK			RTIP			RTOE			RMT1			RMT5			RHEE			
		X1	Y1	Z1	X2	Y2	Z2	X3	Y3	Z3	X4	Y4	Z4	X5	Y5	Z5	X6	Y6	Z6	X7	Y7	Z7	X8	Y8	Z8	X9	Y9	Z9	X10	Y10	Z10	X11	Y11	Z11	X12	Y12	Z12	X13	Y13	Z13	X14	Y14	Z14	X15	Y15	Z15	X16	Y16	Z16	X17	Y17	Z17	X18	Y18	Z18	X19	Y19	Z19	X20	Y20	Z20	X21	Y21	Z21	X22	Y22	Z22	X23	Y23	Z23	X24	Y24	Z24	X25	Y25	Z25	X26	Y26	Z26	X27	Y27	Z27	X28	Y28	Z28	X29	Y29	Z29	X30	Y30	Z30	X31	Y31	Z31	X32	Y32	Z32	X33	Y33	Z33	X34	Y34	Z34	X35	Y35	Z35	X36	Y36	Z36	X37	Y37	Z37	X38	Y38	Z38	X39	Y39	Z39	X40	Y40	Z40	X41	Y41	Z41	X42	Y42	Z42	X43	Y43	Z43	X44	Y44	Z44	X45	Y45	Z45	X46	Y46	Z46	X47	Y47	Z47	X48	Y48	Z48	X49	Y49	Z49	X50	Y50	Z50	X51	Y51	Z51	X52	Y52	Z52	X53	Y53	Z53	

285	2.84	-409.3330383300781	978.9805297851562	14.09309577941895	-346.0648498535156	984.5322265625	-103.6672897338867	-373.8335571289062	1083.227661132812	-38.51231384277344	-162.5457458496094	1269.856689453125	66.40351867675781	-385.2129211425781	1208.100830078125	-36.72579574584961	-349.3807983398438	1482.027709960938	7.389575004577637	-181.9117279052734	1381.138061523438	61.5361328125	-445.7005615234375	1353.089111328125	52.99636840820312	-345.2202453613281	1433.14599609375	-92.91552734375	-223.9343719482422	1456.2060546875	-132.1177215576172	-205.0501861572266	1333.981201171875	-215.4126281738281	-174.8471527099609	1116.320556640625	-249.5490570068359	-272.4678344726562	1102.456909179688	-226.3026580810547	-88.82733917236328	872.2999877929688	-193.0386657714844	-112.1349258422852	855.3976440429688	-275.2063903808594	-147.3206024169922	1031.569091796875	-255.2546234130859	-98.16450500488281	702.9064331054688	-209.8227691650391	-107.1677932739258	794.982421875	-270.2912902832031	-69.2613525390625	794.4896850585938	-213.8164825439453	-355.8873596191406	1437.6572265625	172.1130065917969	-399.6370849609375	1370.183837890625	223.8268585205078	-427.7488403320312	1080.970825195312	251.5638275146484	-465.8189392089844	1066.130126953125	202.4116516113281	-297.3454895019531	854.846435546875	269.9112854003906	-368.4815979003906	836.2958984375	307.646728515625	-423.6954345703125	1024.96240234375	260.9195556640625	-299.2892456054688	681.6404418945312	267.0015258789062	-283.5500183105469	761.3096313476562	292.2831420898438	-355.785400390625	761.4066162109375	310.8493347167969	-320.1829223632812	1651.407592773438	99.36881256103516	-124.9056091308594	1692.876098632812	41.79759979248047	-199.1055908203125	1682.054809570312	165.4976348876953	-228.5386047363281	1663.551391601562	-37.77810668945312	-159.4953765869141	925.2664794921875	-151.0706329345703	-364.0985717773438	904.267333984375	177.3630828857422	-259.2422790527344	937.8241577148438	174.6470031738281	-124.8876724243164	952.2886962890625	-65.68764495849609	-24.11969566345215	516.0376586914062	-12.67473793029785	-62.64227676391602	670.0103149414062	-73.78083038330078	-23.95167350769043	26.0149974822998	-40.910888671875	-28.29163932800293	259.0875854492188	-40.14624404907227	91.45805358886719	43.76850891113281	145.3759002685547	14.47876167297363	49.03932952880859	121.633674621582	75.24225616455078	30.91596031188965	32.61222839355469	-112.7495498657227	33.17706298828125	-44.46002197265625	-371.402099609375	467.5108947753906	110.1899032592773	-338.6860046386719	749.5629272460938	177.6473083496094	-661.435791015625	118.7984924316406	-65.86018371582031	-432.0348510742188	338.7180786132812	59.31964111328125	-466.7593078613281	36.55413436889648	-61.0019416809082	-508.598876953125	59.03049468994141	-113.2485580444336	-559.1942749023438	50.70987319946289	-22.81048965454102	-690.4407348632812	150.4303588867188	-129.8063812255859	
286	2.85	-401.1549072265625	980.242919921875	15.87383842468262	-336.6821899414062	986.8133544921875	-101.0535430908203	-364.7304992675781	1084.941650390625	-36.29596328735352	-154.6034088134766	1271.732543945312	70.97076416015625	-375.9681091308594	1209.811157226562	-34.73335647583008	-340.8266906738281	1483.810302734375	9.522096633911133	-174.0023498535156	1383.048583984375	65.81455230712891	-437.4927368164062	1354.931518554688	54.15576553344727	-335.3491821289062	1434.768920898438	-90.7652587890625	-213.7162933349609	1458.071899414062	-128.3296508789062	-192.828125	1336.053466796875	-211.4366760253906	-159.7977752685547	1118.550659179688	-244.6253204345703	-257.8180236816406	1103.85498046875	-223.78173828125	-72.71372222900391	875.6468505859375	-185.3446502685547	-93.79219818115234	858.203857421875	-267.9649047851562	-131.3248443603516	1034.035766601562	-249.4381713867188	-79.01025390625	706.1678466796875	-201.6007843017578	-88.00630950927734	797.8828735351562	-262.7054138183594	-51.44483947753906	798.141845703125	-205.3381042480469	-349.2658081054688	1439.69677734375	174.1493530273438	-393.576416015625	1372.39306640625	225.4829254150391	-422.2642517089844	1083.127563476562	252.6595458984375	-460.0934143066406	1068.564331054688	203.1877593994141	-292.3623962402344	856.797607421875	271.9070739746094	-363.8908386230469	838.349365234375	309.0107727050781	-418.4375915527344	1027.187622070312	262.0005493164062	-294.68310546875	683.540283203125	268.4950256347656	-278.9961242675781	763.164306640625	294.1204223632812	-351.3734436035156	763.4119873046875	312.1661376953125	-312.5143432617188	1653.281494140625	102.0509338378906	-116.6879501342773	1694.67431640625	46.19840621948242	-191.9129486083984	1683.9189453125	169.37060546875	-219.5854949951172	1665.405395507812	-34.29937362670898	-149.7434387207031	927.5745239257812	-147.3710784912109	-356.8016357421875	904.9922485351562	179.2203216552734	-252.2746734619141	939.1818237304688	177.5171661376953	-115.8641128540039	954.1524658203125	-61.52950286865234	-19.88079261779785	515.7860717773438	-11.14474582672119	-56.30118179321289	670.5635375976562	-71.47683715820312	-23.91123580932617	25.9144344329834	-41.08107376098633	-26.68585968017578	259.0493469238281	-39.69552230834961	91.14733123779297	43.69094467163086	145.4783020019531	14.26308917999268	49.22249221801758	121.6039886474609	75.18282318115234	31.08888053894043	32.61171722412109	-112.6593627929688	33.02611923217773	-44.78195571899414	-357.9702758789062	467.1590270996094	118.2966537475586	-329.6647033691406	750.6376953125	181.1656341552734	-654.6519165039062	128.3792724609375	-64.07732391357422	-420.2386169433594	339.7735595703125	66.13390350341797	-464.9710083007812	36.0727424621582	-60.11150741577148	-505.2954406738281	62.04208755493164	-112.02587890625	-556.0902099609375	54.54529571533203	-21.66654968261719	-681.2134399414062	162.2806701660156	-127.8421783447266	
287	2.86	-393.2924499511719	981.5661010742188	17.58012580871582	-327.5686340332031	989.15478515625	-98.44342803955078	-355.9437561035156	1086.671997070312	-34.12521743774414	-146.8791046142578	1273.567993164062	75.61020660400391	-366.892822265625	1211.55712890625	-32.78189086914062	-332.3502502441406	1485.615600585938	11.68169689178467	-166.2416076660156	1384.933959960938	70.17360687255859	-429.4020080566406	1356.81640625	55.28920745849609	-325.5250549316406	1436.449584960938	-88.56541442871094	-203.5233459472656	1459.974853515625	-124.4312896728516	-180.5838470458984	1338.186157226562	-207.3192291259766	-144.7272033691406	1120.8818359375	-239.5218658447266	-243.0733184814453	1105.329833984375	-221.1909637451172	-56.62203598022461	879.1544799804688	-177.4042205810547	-75.42720031738281	861.1524047851562	-260.4335021972656	-115.2943344116211	1036.61767578125	-243.3979187011719	-59.879150390625	709.5918579101562	-193.0057067871094	-68.82266235351562	800.9349365234375	-254.7854919433594	-33.66357040405273	801.978759765625	-196.5540771484375	-342.8024597167969	1441.75	176.171875	-387.6966552734375	1374.624877929688	227.1104125976562	-416.9624938964844	1085.3291015625	253.7163543701172	-454.4937744140625	1070.988037109375	203.9362487792969	-287.3036193847656	858.9300537109375	273.9123229980469	-359.2064819335938	840.5042724609375	310.3813171386719	-413.3092346191406	1029.451049804688	263.0629577636719	-289.8268432617188	685.612548828125	270.0059814453125	-274.2853088378906	765.2026977539062	295.9742736816406	-346.7987670898438	765.523193359375	313.4880676269531	-304.9276123046875	1655.145385742188	104.8263549804688	-108.5653610229492	1696.441040039062	50.65853500366211	-184.8049774169922	1685.756591796875	173.3067626953125	-210.7346954345703	1667.240234375	-30.73139190673828	-140.2814788818359	929.8522338867188	-143.6143951416016	-349.8138732910156	905.7279052734375	181.0093078613281	-245.6141052246094	940.5840454101562	180.3562927246094	-107.1060638427734	955.9893798828125	-57.38481903076172	-16.13620948791504	515.5401611328125	-9.735866546630859	-50.35912322998047	671.1422119140625	-69.14790344238281	-23.89952087402344	25.80511474609375	-41.24209213256836	-25.33046722412109	259.02978515625	-39.37178039550781	90.80310821533203	43.77071762084961	145.5693664550781	14.00232410430908	49.44853591918945	121.5699920654297	75.06820678710938	31.25263977050781	32.66607666015625	-112.6021041870117	32.85276794433594	-45.13306427001953	-344.1722717285156	466.9182739257812	126.5832824707031	-320.8156127929688	751.7454833984375	184.7646942138672	-646.8771362304688	138.5321655273438	-62.05778884887695	-407.8478088378906	341.0107421875	73.20717620849609	-462.7525024414062	35.57508087158203	-58.67316818237305	-501.3671875	65.31191253662109	-110.3002090454102	-552.440185546875	59.14677047729492	-20.03796195983887	-670.929931640625	174.4074401855469	-125.6330947875977	
288	2.87	-385.7395935058594	982.9207763671875	19.22904777526855	-318.7199096679688	991.5139770507812	-95.83380126953125	-347.4803771972656	1088.402465820312	-31.97201919555664	-139.3761901855469	1275.33544921875	80.30682373046875	-358.0224609375	1213.318725585938	-30.84150123596191	-323.9530639648438	1487.420776367188	13.88120460510254	-158.6298217773438	1386.762573242188	74.60650634765625	-421.4324951171875	1358.725341796875	56.41298675537109	-315.7635192871094	1438.168579101562	-86.29542541503906	-193.3701782226562	1461.88720703125	-120.4216995239258	-168.3380432128906	1340.3505859375	-203.0527801513672	-129.6677856445312	1123.29248046875	-234.2367553710938	-228.2556457519531	1106.850952148438	-218.5098114013672	-40.57804870605469	882.7974243164062	-169.2252807617188	-57.07838439941406	864.2251586914062	-252.6209869384766	-99.25824737548828	1039.294799804688	-237.1399993896484	-40.8076057434082	713.1729736328125	-184.0821075439453	-49.65650939941406	804.1268920898438	-246.54736328125	-15.94745063781738	805.985595703125	-187.4836730957031	-336.4666137695312	1443.788818359375	178.2072296142578	-381.9747009277344	1376.836791992188	228.7209320068359	-411.8687133789062	1087.5380859375	254.72412109375	-449.0272216796875	1073.35595703125	204.6349945068359	-282.1928100585938	861.220703125	275.9585876464844	-354.451904296875	842.71923828125	311.7540588378906	-408.3367614746094	1031.70458984375	264.0958251953125	-284.6946411132812	687.8414306640625	271.5916442871094	-269.415283203125	767.4081420898438	297.8934020996094	-342.0606689453125	767.7015380859375	314.8190612792969	-297.430908203125	1656.966552734375	107.6960296630859	-100.5493545532227	1698.159545898438	55.18674850463867	-177.8041229248047	1687.536254882812	177.3032379150391	-201.9946899414062	1669.028564453125	-27.07050323486328	-131.093505859375	932.0782470703125	-139.7804412841797	-343.1370239257812	906.4639282226562	182.7525939941406	-239.2578277587891	942.0154418945312	183.1861114501953	-98.61531829833984	957.7743530273438	-53.22670745849609	-12.79838562011719	515.304931640625	-8.39954948425293	-44.73493957519531	671.7485961914062	-66.76845550537109	-23.89702033996582	25.6882381439209	-41.39487838745117	-24.11953735351562	259.0292358398438	-39.14919281005859	90.44043731689453	43.94809722900391	145.6518249511719	13.71900749206543	49.69303512573242	121.5273895263672	74.92137908935547	31.39099502563477	32.76314163208008	-112.5639190673828	32.67007827758789	-45.50688934326172	-330.05078125	466.8335876464844	134.9886627197266	-312.1622314453125	752.872314453125	188.4409790039062	-638.0469360351562	149.05859375	-59.78887176513672	-394.9144897460938	342.4591979980469	80.50292205810547	-460.0036315917969	35.15316390991211	-56.49405670166016	-496.6662292480469	68.75544738769531	-107.9258651733398	-548.1548461914062	64.42636871337891	-17.84119415283203	-659.5604248046875	186.5533905029297	-123.1960296630859	
